<svg clip-rule="evenodd" fill-rule="evenodd" stroke-linejoin="round" stroke-miterlimit="2" version="1.1" viewBox="0 0 1200 1200" xmlns="http://www.w3.org/2000/svg" xmlns:xlink="http://www.w3.org/1999/xlink"><path d="m411.97 1152.3c-9.625-0.079-22-0.479-27.5-0.888-5.5-0.4091-14.997-1.4561-21.104-2.3266-6.1073-0.8706-17.132-2.9027-24.5-4.5158-7.3677-1.6132-18.571-4.6076-24.896-6.6543s-16.473-5.8282-22.552-8.4032-16.02-7.5016-22.093-10.948c-6.0725-3.4463-15.844-9.832-21.714-14.19l-10.673-7.9242-8.2382-8.2487c-4.531-4.5367-11.241-12.254-14.911-17.15l-6.6727-8.9017-10.959-21.197-3.0452-9.1607c-1.6749-5.0384-3.8486-13.138-4.8306-18l-1.7854-8.8393 0.084-36 2.1925-10.148c1.2059-5.5813 3.7909-14.806 5.7445-20.5s6.1871-15.752 9.4078-22.352l5.8557-12 15.952-24 9.4418-11c5.193-6.05 14.277-15.606 20.188-21.236s16.227-14.441 22.926-19.58c6.6993-5.1392 16.231-12.051 21.181-15.359 4.95-3.3083 14.4-9.0807 21-12.828 6.6-3.747 17.625-9.486 24.5-12.753 6.875-3.2673 18.575-8.3134 26-11.214 7.425-2.9001 18.675-6.9454 25-8.9895 6.325-2.0441 18.7-5.449 27.5-7.5663s21.443-4.7767 28.096-5.9097 18.803-2.7865 27-3.6744l14.904-1.6143 46-0.0648 11.5 1.1976c6.325 0.65868 17.8 2.2962 25.5 3.6388 7.7 1.3427 18.229 3.5776 23.397 4.9664 5.1682 1.3888 9.5022 2.4037 9.6311 2.2552 0.12891-0.14839-36.151-135.94-80.621-301.77l-80.856-301.5c-3.0891-11.519-0.25815-22.736 5.555-33.229 15.95-26.228 51.074-33.156 78.772-39.791 14.189-3.4823 28.31-6.7759 42.122-11.478 6.6-2.2471 20.68-6.7644 31.289-10.038s24.559-7.2677 31-8.8749 14.947-3.4095 18.903-4.005c5.8638-1.3519 11.321-0.80103 17.757-1.0827s13.531 0.44542 20.308 1.4635c5.3589 0.8049 14.018 2.5745 19.243 3.9324s13.206 3.8358 17.736 5.5064c4.53 1.6706 12.855 5.3367 18.5 8.1468 5.645 2.8102 15.251 8.4198 21.346 12.466 7.6604 4.257 14.014 9.9715 20.5 15.756 5.1796 4.6198 11.936 11.286 15.015 14.814 3.0786 3.5281 8.1439 9.9733 11.256 14.323 5.293 6.0643 8.4891 13.379 12.032 20.5 15.87 31.355 9.9941 30.159 43.452 98.592 4.1353 8.4581 13.789 22.956 32.6 36.967 6.3608 4.7376 17.573 10.388 27.425 13.927 4.0495 1.4546 12.824 3.7259 19.5 5.0473 17.62 3.4878 25.403 4.3616 28.606 4.4383-0.14111 0.98818-20.668 10.354-58.468 30.033 0 0-16.459 9.1021-25 13.015-4.8128 2.2047-29.37 11.779-39 14.425-13.384 4.0524-27.054 5.1378-40.926 5.6453-7.5653 0.31837-18.369-1.0735-22.074-1.5604-10.356-1.3608-20.039-4.8539-29.652-8.7653-10.164-4.1357-19.503-9.8642-28.348-16.371l-9-6.6143-27-27.186-10.174-13c-5.5956-7.15-15.679-20.2-22.407-29s-16.547-21.173-21.819-27.495c-5.2722-6.3225-15.889-17.969-23.593-25.881-7.7039-7.9122-17.157-16.943-21.007-20.068-3.85-3.1251-9.925-7.7392-13.5-10.254s-10.512-6.8626-15.416-9.6625c-4.9037-2.7999-12.48-6.4517-16.835-8.115-4.3558-1.6633-8.2549-3.0242-8.6647-3.0242h-0.74503l12.335 45.75c6.7844 25.162 49.905 186.09 95.824 357.62l83.489 311.87 1.9396 10.627c1.0668 5.8446 2.2015 14.452 2.5217 19.127l0.58213 8.5-1.0521 10.927c-0.57866 6.0096-1.9131 14.785-2.9655 19.5s-3.1218 12.173-4.5987 16.573c-1.4769 4.4-4.3976 11.897-6.4903 16.66s-5.2705 11.288-7.0618 14.5c-1.7912 3.212-5.5783 9.44-8.4158 13.84-2.8375 4.4-7.9113 11.563-11.275 15.918-3.3638 4.3548-9.8002 11.935-14.303 16.845-4.5028 4.91-12.81 13.102-18.461 18.204-5.6508 5.1024-14.917 12.843-20.591 17.202-5.6741 4.3585-15.042 11.009-20.817 14.779-5.775 3.7698-15.939 9.868-22.586 13.552-6.6475 3.6835-17.672 9.2768-24.5 12.43-6.8275 3.1527-18.172 7.939-25.21 10.636s-19.469 6.9319-27.624 9.4105c-8.1552 2.4785-19.616 5.6379-25.468 7.0207-5.8523 1.3828-17.496 3.6434-25.876 5.0235-8.3794 1.3801-22.435 3.1759-31.235 3.9905l-16 1.4812zm396-802.95c4.125 0.0499 11.55-0.36066 16.5-0.91238 4.95-0.55171 13.585-1.9019 19.188-3.0004 5.6035-1.0985 15.503-3.5454 22-5.4376 6.4965-1.8922 16.537-5.2254 22.312-7.4072 7.6798-2.9014 17.921-6.8062 38.5-16.65l12-5.7401c-8.0512-2.0518-16.093-4.155-24-6.7159-3.85-1.2716-10.6-4.1051-15-6.2967-10.507-5.2421-20.258-11.498-28.212-20.162-3.0558-3.3392-7.4626-8.9963-9.7929-12.571s-5.4742-8.975-6.9865-12-2.9205-5.6875-3.1293-5.9166c-2.765 1.8324-4.9113 4.8256-7.1054 7.3639-9.0571-6.5494-19.198-10.96-29.8-14.323-5.4858-1.6905-13.971-3.7599-18.855-4.5987-4.3009-0.72996-8.5984-1.5251-12.968-1.5251 3.2186 3.266 5.7708 7.0945 8.2576 10.928 3.2415 3.8933 4.6483 8.1368 6.1057 12.855 1.0919 3.5351 1.9852 7.7788 1.9852 9.4305v3.0031c-3.7094-0.98383-7.4666-1.761-11.229-2.5126 2.3084 8.1181 1.1512 6.4768 3.4458 14.555-18.601-2.7894-20.91-5.8997-21.894-4.9165-0.20567 0.20567 8.5162 14.463 13.845 20.5-4.1082 3.4463-12.946 7.5605-40.272 7.1564 11.571 9.6298 15.002 12.123 20.915 16.298 12.868 9.0863 13.439 9.1668 16.189 10.938 0 0.64844-1.35 2.6449-3 4.9226-1.5023 2.0573-3 4.0968-3 6.6806l5.2164 1.7326c6.4922 2.1564 18.983 4.2024 28.784 4.321z" fill="#fff"/></svg>
